<mxfile host="app.diagrams.net" modified="2024-04-11T02:28:26.948Z" agent="Mozilla/5.0 (Macintosh; Intel Mac OS X 10_15_7) AppleWebKit/537.36 (KHTML, like Gecko) Chrome/123.0.0.0 Safari/537.36" etag="YGL2aNOdbrCCag3QnMOc" version="24.2.3" type="github">
  <diagram name="Page-1" id="edf60f1a-56cd-e834-aa8a-f176f3a09ee4">
    <mxGraphModel dx="1990" dy="3460" grid="1" gridSize="10" guides="1" tooltips="1" connect="1" arrows="1" fold="1" page="1" pageScale="1" pageWidth="850" pageHeight="1100" background="none" math="0" shadow="0">
      <root>
        <mxCell id="0" />
        <mxCell id="1" parent="0" />
        <mxCell id="9ALi2KaTy-VrY5-sKbWw-7" value="" style="edgeStyle=orthogonalEdgeStyle;rounded=0;orthogonalLoop=1;jettySize=auto;html=1;" edge="1" parent="1" source="9ALi2KaTy-VrY5-sKbWw-1" target="9ALi2KaTy-VrY5-sKbWw-6">
          <mxGeometry relative="1" as="geometry" />
        </mxCell>
        <mxCell id="9ALi2KaTy-VrY5-sKbWw-41" value="1" style="edgeLabel;html=1;align=center;verticalAlign=middle;resizable=0;points=[];" vertex="1" connectable="0" parent="9ALi2KaTy-VrY5-sKbWw-7">
          <mxGeometry x="-0.0794" relative="1" as="geometry">
            <mxPoint as="offset" />
          </mxGeometry>
        </mxCell>
        <mxCell id="9ALi2KaTy-VrY5-sKbWw-1" value="start" style="strokeWidth=2;html=1;shape=mxgraph.flowchart.terminator;whiteSpace=wrap;" vertex="1" parent="1">
          <mxGeometry x="190" y="-1880" width="100" height="60" as="geometry" />
        </mxCell>
        <mxCell id="9ALi2KaTy-VrY5-sKbWw-35" style="edgeStyle=orthogonalEdgeStyle;rounded=0;orthogonalLoop=1;jettySize=auto;html=1;exitX=0;exitY=0.5;exitDx=0;exitDy=0;entryX=1;entryY=0.5;entryDx=0;entryDy=0;" edge="1" parent="1" source="9ALi2KaTy-VrY5-sKbWw-2" target="9ALi2KaTy-VrY5-sKbWw-6">
          <mxGeometry relative="1" as="geometry" />
        </mxCell>
        <mxCell id="9ALi2KaTy-VrY5-sKbWw-46" value="6" style="edgeLabel;html=1;align=center;verticalAlign=middle;resizable=0;points=[];" vertex="1" connectable="0" parent="9ALi2KaTy-VrY5-sKbWw-35">
          <mxGeometry x="-0.0194" y="1" relative="1" as="geometry">
            <mxPoint as="offset" />
          </mxGeometry>
        </mxCell>
        <mxCell id="9ALi2KaTy-VrY5-sKbWw-38" style="edgeStyle=orthogonalEdgeStyle;rounded=0;orthogonalLoop=1;jettySize=auto;html=1;exitX=1;exitY=0.25;exitDx=0;exitDy=0;entryX=0;entryY=0.25;entryDx=0;entryDy=0;" edge="1" parent="1" source="9ALi2KaTy-VrY5-sKbWw-2" target="9ALi2KaTy-VrY5-sKbWw-4">
          <mxGeometry relative="1" as="geometry" />
        </mxCell>
        <mxCell id="9ALi2KaTy-VrY5-sKbWw-43" value="3" style="edgeLabel;html=1;align=center;verticalAlign=middle;resizable=0;points=[];" vertex="1" connectable="0" parent="9ALi2KaTy-VrY5-sKbWw-38">
          <mxGeometry x="0.06" y="2" relative="1" as="geometry">
            <mxPoint as="offset" />
          </mxGeometry>
        </mxCell>
        <mxCell id="9ALi2KaTy-VrY5-sKbWw-2" value="autoload_runtime" style="whiteSpace=wrap;html=1;strokeWidth=2;" vertex="1" parent="1">
          <mxGeometry x="380" y="-1690" width="120" height="60" as="geometry" />
        </mxCell>
        <mxCell id="9ALi2KaTy-VrY5-sKbWw-32" value="" style="edgeStyle=orthogonalEdgeStyle;rounded=0;orthogonalLoop=1;jettySize=auto;html=1;entryX=0.5;entryY=0;entryDx=0;entryDy=0;" edge="1" parent="1" source="9ALi2KaTy-VrY5-sKbWw-4" target="9ALi2KaTy-VrY5-sKbWw-90">
          <mxGeometry relative="1" as="geometry">
            <mxPoint x="700" y="-1600" as="targetPoint" />
          </mxGeometry>
        </mxCell>
        <mxCell id="9ALi2KaTy-VrY5-sKbWw-44" value="4" style="edgeLabel;html=1;align=center;verticalAlign=middle;resizable=0;points=[];" vertex="1" connectable="0" parent="9ALi2KaTy-VrY5-sKbWw-32">
          <mxGeometry x="-0.2778" relative="1" as="geometry">
            <mxPoint as="offset" />
          </mxGeometry>
        </mxCell>
        <mxCell id="9ALi2KaTy-VrY5-sKbWw-4" value="SymfonyRuntime-&amp;gt;getArgument()" style="whiteSpace=wrap;html=1;strokeWidth=2;" vertex="1" parent="1">
          <mxGeometry x="600" y="-1750" width="200" height="60" as="geometry" />
        </mxCell>
        <mxCell id="9ALi2KaTy-VrY5-sKbWw-40" style="edgeStyle=orthogonalEdgeStyle;rounded=0;orthogonalLoop=1;jettySize=auto;html=1;exitX=1;exitY=0.25;exitDx=0;exitDy=0;entryX=0;entryY=0.25;entryDx=0;entryDy=0;" edge="1" parent="1" source="9ALi2KaTy-VrY5-sKbWw-6" target="9ALi2KaTy-VrY5-sKbWw-2">
          <mxGeometry relative="1" as="geometry" />
        </mxCell>
        <mxCell id="9ALi2KaTy-VrY5-sKbWw-42" value="2" style="edgeLabel;html=1;align=center;verticalAlign=middle;resizable=0;points=[];" vertex="1" connectable="0" parent="9ALi2KaTy-VrY5-sKbWw-40">
          <mxGeometry x="-0.0917" y="1" relative="1" as="geometry">
            <mxPoint as="offset" />
          </mxGeometry>
        </mxCell>
        <mxCell id="9ALi2KaTy-VrY5-sKbWw-60" value="" style="edgeStyle=orthogonalEdgeStyle;rounded=0;orthogonalLoop=1;jettySize=auto;html=1;" edge="1" parent="1" source="9ALi2KaTy-VrY5-sKbWw-6" target="9ALi2KaTy-VrY5-sKbWw-59">
          <mxGeometry relative="1" as="geometry" />
        </mxCell>
        <mxCell id="9ALi2KaTy-VrY5-sKbWw-81" value="6" style="edgeLabel;html=1;align=center;verticalAlign=middle;resizable=0;points=[];" vertex="1" connectable="0" parent="9ALi2KaTy-VrY5-sKbWw-60">
          <mxGeometry y="-1" relative="1" as="geometry">
            <mxPoint as="offset" />
          </mxGeometry>
        </mxCell>
        <mxCell id="9ALi2KaTy-VrY5-sKbWw-6" value="index.php" style="whiteSpace=wrap;html=1;strokeWidth=2;" vertex="1" parent="1">
          <mxGeometry x="180" y="-1690" width="120" height="60" as="geometry" />
        </mxCell>
        <mxCell id="9ALi2KaTy-VrY5-sKbWw-12" value="" style="edgeStyle=orthogonalEdgeStyle;rounded=0;orthogonalLoop=1;jettySize=auto;html=1;exitX=0.5;exitY=1;exitDx=0;exitDy=0;" edge="1" parent="1" source="9ALi2KaTy-VrY5-sKbWw-59" target="9ALi2KaTy-VrY5-sKbWw-11">
          <mxGeometry relative="1" as="geometry">
            <mxPoint x="310" y="-1430" as="sourcePoint" />
          </mxGeometry>
        </mxCell>
        <mxCell id="9ALi2KaTy-VrY5-sKbWw-49" value="8" style="edgeLabel;html=1;align=center;verticalAlign=middle;resizable=0;points=[];" vertex="1" connectable="0" parent="9ALi2KaTy-VrY5-sKbWw-12">
          <mxGeometry x="-0.1826" relative="1" as="geometry">
            <mxPoint as="offset" />
          </mxGeometry>
        </mxCell>
        <mxCell id="9ALi2KaTy-VrY5-sKbWw-48" style="edgeStyle=orthogonalEdgeStyle;rounded=0;orthogonalLoop=1;jettySize=auto;html=1;exitX=0.5;exitY=1;exitDx=0;exitDy=0;entryX=1;entryY=0.25;entryDx=0;entryDy=0;" edge="1" parent="1" source="9ALi2KaTy-VrY5-sKbWw-11" target="9ALi2KaTy-VrY5-sKbWw-13">
          <mxGeometry relative="1" as="geometry">
            <mxPoint x="310" y="-1145" as="targetPoint" />
            <Array as="points">
              <mxPoint x="580" y="-1260" />
              <mxPoint x="310" y="-1260" />
            </Array>
          </mxGeometry>
        </mxCell>
        <mxCell id="9ALi2KaTy-VrY5-sKbWw-50" value="9" style="edgeLabel;html=1;align=center;verticalAlign=middle;resizable=0;points=[];" vertex="1" connectable="0" parent="9ALi2KaTy-VrY5-sKbWw-48">
          <mxGeometry x="-0.3" y="-1" relative="1" as="geometry">
            <mxPoint as="offset" />
          </mxGeometry>
        </mxCell>
        <mxCell id="9ALi2KaTy-VrY5-sKbWw-11" value="symfonyRuntime-&amp;gt;getRunner()" style="whiteSpace=wrap;html=1;strokeWidth=2;" vertex="1" parent="1">
          <mxGeometry x="480" y="-1390" width="200" height="60" as="geometry" />
        </mxCell>
        <mxCell id="9ALi2KaTy-VrY5-sKbWw-58" value="" style="edgeStyle=orthogonalEdgeStyle;rounded=0;orthogonalLoop=1;jettySize=auto;html=1;" edge="1" parent="1" source="9ALi2KaTy-VrY5-sKbWw-13" target="9ALi2KaTy-VrY5-sKbWw-57">
          <mxGeometry relative="1" as="geometry" />
        </mxCell>
        <mxCell id="9ALi2KaTy-VrY5-sKbWw-83" value="10" style="edgeLabel;html=1;align=center;verticalAlign=middle;resizable=0;points=[];" vertex="1" connectable="0" parent="9ALi2KaTy-VrY5-sKbWw-58">
          <mxGeometry x="-0.2" y="4" relative="1" as="geometry">
            <mxPoint as="offset" />
          </mxGeometry>
        </mxCell>
        <mxCell id="9ALi2KaTy-VrY5-sKbWw-13" value="HttpKernelRunner-&amp;gt;run()" style="whiteSpace=wrap;html=1;strokeWidth=2;" vertex="1" parent="1">
          <mxGeometry x="120" y="-1290" width="190" height="60" as="geometry" />
        </mxCell>
        <mxCell id="9ALi2KaTy-VrY5-sKbWw-88" value="" style="edgeStyle=orthogonalEdgeStyle;rounded=0;orthogonalLoop=1;jettySize=auto;html=1;" edge="1" parent="1" source="9ALi2KaTy-VrY5-sKbWw-15" target="9ALi2KaTy-VrY5-sKbWw-87">
          <mxGeometry relative="1" as="geometry" />
        </mxCell>
        <mxCell id="9ALi2KaTy-VrY5-sKbWw-15" value="HttpKernel" style="whiteSpace=wrap;html=1;strokeWidth=2;" vertex="1" parent="1">
          <mxGeometry x="110" y="-540" width="200" height="60" as="geometry" />
        </mxCell>
        <mxCell id="9ALi2KaTy-VrY5-sKbWw-17" value="&lt;div style=&quot;background-color:#1e1f22;color:#bcbec4&quot;&gt;&lt;pre style=&quot;font-family:&#39;JetBrains Mono&#39;,monospace;font-size:9.8pt;&quot;&gt;RequestEvent&lt;/pre&gt;&lt;/div&gt;" style="whiteSpace=wrap;html=1;strokeWidth=2;" vertex="1" parent="1">
          <mxGeometry x="550" y="-600" width="120" height="60" as="geometry" />
        </mxCell>
        <mxCell id="9ALi2KaTy-VrY5-sKbWw-20" value="&lt;div style=&quot;background-color:#1e1f22;color:#bcbec4&quot;&gt;&lt;pre style=&quot;font-family:&#39;JetBrains Mono&#39;,monospace;font-size:9.8pt;&quot;&gt;ControllerEvent&lt;/pre&gt;&lt;/div&gt;" style="rounded=0;whiteSpace=wrap;html=1;" vertex="1" parent="1">
          <mxGeometry x="550" y="-540" width="120" height="60" as="geometry" />
        </mxCell>
        <mxCell id="9ALi2KaTy-VrY5-sKbWw-21" value="&lt;div style=&quot;background-color:#1e1f22;color:#bcbec4&quot;&gt;&lt;pre style=&quot;font-family:&#39;JetBrains Mono&#39;,monospace;font-size:9.8pt;&quot;&gt;ControllerArgumentsEvent&lt;/pre&gt;&lt;/div&gt;" style="rounded=0;whiteSpace=wrap;html=1;" vertex="1" parent="1">
          <mxGeometry x="550" y="-480" width="200" height="60" as="geometry" />
        </mxCell>
        <mxCell id="9ALi2KaTy-VrY5-sKbWw-22" value="" style="endArrow=classic;html=1;rounded=0;entryX=0;entryY=0.5;entryDx=0;entryDy=0;exitX=1;exitY=0.5;exitDx=0;exitDy=0;" edge="1" parent="1" source="9ALi2KaTy-VrY5-sKbWw-15" target="9ALi2KaTy-VrY5-sKbWw-20">
          <mxGeometry width="50" height="50" relative="1" as="geometry">
            <mxPoint x="770" y="-1130" as="sourcePoint" />
            <mxPoint x="560" y="-1060" as="targetPoint" />
          </mxGeometry>
        </mxCell>
        <mxCell id="9ALi2KaTy-VrY5-sKbWw-23" value="" style="endArrow=classic;html=1;rounded=0;entryX=0;entryY=0.5;entryDx=0;entryDy=0;exitX=1;exitY=0.5;exitDx=0;exitDy=0;" edge="1" parent="1" source="9ALi2KaTy-VrY5-sKbWw-15" target="9ALi2KaTy-VrY5-sKbWw-21">
          <mxGeometry width="50" height="50" relative="1" as="geometry">
            <mxPoint x="770" y="-1130" as="sourcePoint" />
            <mxPoint x="680" y="-920" as="targetPoint" />
          </mxGeometry>
        </mxCell>
        <mxCell id="9ALi2KaTy-VrY5-sKbWw-24" value="" style="endArrow=classic;html=1;rounded=0;entryX=0;entryY=0.5;entryDx=0;entryDy=0;exitX=1;exitY=0.5;exitDx=0;exitDy=0;" edge="1" parent="1" source="9ALi2KaTy-VrY5-sKbWw-15" target="9ALi2KaTy-VrY5-sKbWw-17">
          <mxGeometry width="50" height="50" relative="1" as="geometry">
            <mxPoint x="670" y="-1100" as="sourcePoint" />
            <mxPoint x="690" y="-910" as="targetPoint" />
          </mxGeometry>
        </mxCell>
        <mxCell id="9ALi2KaTy-VrY5-sKbWw-33" style="edgeStyle=orthogonalEdgeStyle;rounded=0;orthogonalLoop=1;jettySize=auto;html=1;exitX=0.5;exitY=1;exitDx=0;exitDy=0;entryX=1;entryY=1;entryDx=0;entryDy=0;" edge="1" parent="1" source="9ALi2KaTy-VrY5-sKbWw-90" target="9ALi2KaTy-VrY5-sKbWw-2">
          <mxGeometry relative="1" as="geometry">
            <mxPoint x="700" y="-1560" as="sourcePoint" />
          </mxGeometry>
        </mxCell>
        <mxCell id="9ALi2KaTy-VrY5-sKbWw-45" value="5" style="edgeLabel;html=1;align=center;verticalAlign=middle;resizable=0;points=[];" vertex="1" connectable="0" parent="9ALi2KaTy-VrY5-sKbWw-33">
          <mxGeometry x="-0.0674" y="-1" relative="1" as="geometry">
            <mxPoint as="offset" />
          </mxGeometry>
        </mxCell>
        <mxCell id="9ALi2KaTy-VrY5-sKbWw-80" style="edgeStyle=orthogonalEdgeStyle;rounded=0;orthogonalLoop=1;jettySize=auto;html=1;exitX=0.5;exitY=1;exitDx=0;exitDy=0;" edge="1" parent="1" source="9ALi2KaTy-VrY5-sKbWw-57" target="9ALi2KaTy-VrY5-sKbWw-15">
          <mxGeometry relative="1" as="geometry">
            <Array as="points">
              <mxPoint x="215" y="-510" />
              <mxPoint x="215" y="-510" />
            </Array>
          </mxGeometry>
        </mxCell>
        <mxCell id="9ALi2KaTy-VrY5-sKbWw-86" value="13" style="edgeLabel;html=1;align=center;verticalAlign=middle;resizable=0;points=[];" vertex="1" connectable="0" parent="9ALi2KaTy-VrY5-sKbWw-80">
          <mxGeometry x="-0.165" y="-1" relative="1" as="geometry">
            <mxPoint as="offset" />
          </mxGeometry>
        </mxCell>
        <mxCell id="9ALi2KaTy-VrY5-sKbWw-57" value="http/Kernel-&amp;gt;handle" style="whiteSpace=wrap;html=1;strokeWidth=2;" vertex="1" parent="1">
          <mxGeometry x="155" y="-930" width="120" height="60" as="geometry" />
        </mxCell>
        <mxCell id="9ALi2KaTy-VrY5-sKbWw-62" value="" style="edgeStyle=orthogonalEdgeStyle;rounded=0;orthogonalLoop=1;jettySize=auto;html=1;" edge="1" parent="1" source="9ALi2KaTy-VrY5-sKbWw-59" target="9ALi2KaTy-VrY5-sKbWw-61">
          <mxGeometry relative="1" as="geometry" />
        </mxCell>
        <mxCell id="9ALi2KaTy-VrY5-sKbWw-82" value="7" style="edgeLabel;html=1;align=center;verticalAlign=middle;resizable=0;points=[];" vertex="1" connectable="0" parent="9ALi2KaTy-VrY5-sKbWw-62">
          <mxGeometry x="-0.1022" y="-4" relative="1" as="geometry">
            <mxPoint as="offset" />
          </mxGeometry>
        </mxCell>
        <mxCell id="9ALi2KaTy-VrY5-sKbWw-59" value="src/Kernel" style="whiteSpace=wrap;html=1;strokeWidth=2;" vertex="1" parent="1">
          <mxGeometry x="180" y="-1510" width="120" height="60" as="geometry" />
        </mxCell>
        <mxCell id="9ALi2KaTy-VrY5-sKbWw-64" value="" style="edgeStyle=orthogonalEdgeStyle;rounded=0;orthogonalLoop=1;jettySize=auto;html=1;" edge="1" parent="1" source="9ALi2KaTy-VrY5-sKbWw-61" target="9ALi2KaTy-VrY5-sKbWw-63">
          <mxGeometry relative="1" as="geometry" />
        </mxCell>
        <mxCell id="9ALi2KaTy-VrY5-sKbWw-66" style="edgeStyle=orthogonalEdgeStyle;rounded=0;orthogonalLoop=1;jettySize=auto;html=1;exitX=1;exitY=0.5;exitDx=0;exitDy=0;entryX=0;entryY=0.5;entryDx=0;entryDy=0;" edge="1" parent="1" source="9ALi2KaTy-VrY5-sKbWw-61" target="9ALi2KaTy-VrY5-sKbWw-65">
          <mxGeometry relative="1" as="geometry" />
        </mxCell>
        <mxCell id="9ALi2KaTy-VrY5-sKbWw-61" value="MicroKernelTrait" style="whiteSpace=wrap;html=1;strokeWidth=2;" vertex="1" parent="1">
          <mxGeometry x="475" y="-1510" width="150" height="60" as="geometry" />
        </mxCell>
        <mxCell id="9ALi2KaTy-VrY5-sKbWw-63" value="redister_bundles" style="whiteSpace=wrap;html=1;strokeWidth=2;" vertex="1" parent="1">
          <mxGeometry x="840" y="-1560" width="120" height="60" as="geometry" />
        </mxCell>
        <mxCell id="9ALi2KaTy-VrY5-sKbWw-65" value="&lt;div style=&quot;background-color:#1e1f22;color:#bcbec4&quot;&gt;&lt;pre style=&quot;font-family:&#39;JetBrains Mono&#39;,monospace;font-size:9.8pt;&quot;&gt;&lt;span style=&quot;color:#56a8f5;&quot;&gt;configureRoutes&lt;/span&gt;&lt;/pre&gt;&lt;/div&gt;" style="rounded=0;whiteSpace=wrap;html=1;" vertex="1" parent="1">
          <mxGeometry x="840" y="-1500" width="140" height="60" as="geometry" />
        </mxCell>
        <mxCell id="9ALi2KaTy-VrY5-sKbWw-67" value="&lt;div style=&quot;background-color:#1e1f22;color:#bcbec4&quot;&gt;&lt;pre style=&quot;font-family:&#39;JetBrains Mono&#39;,monospace;font-size:9.8pt;&quot;&gt;&lt;span style=&quot;color:#56a8f5;&quot;&gt;configureContainer&lt;/span&gt;&lt;/pre&gt;&lt;/div&gt;" style="rounded=0;whiteSpace=wrap;html=1;" vertex="1" parent="1">
          <mxGeometry x="840" y="-1440" width="150" height="60" as="geometry" />
        </mxCell>
        <mxCell id="9ALi2KaTy-VrY5-sKbWw-69" style="edgeStyle=orthogonalEdgeStyle;rounded=0;orthogonalLoop=1;jettySize=auto;html=1;exitX=1;exitY=0.5;exitDx=0;exitDy=0;entryX=1.002;entryY=0.648;entryDx=0;entryDy=0;entryPerimeter=0;" edge="1" parent="1" source="9ALi2KaTy-VrY5-sKbWw-63" target="9ALi2KaTy-VrY5-sKbWw-57">
          <mxGeometry relative="1" as="geometry">
            <Array as="points">
              <mxPoint x="1140" y="-1530" />
              <mxPoint x="1140" y="-891" />
            </Array>
          </mxGeometry>
        </mxCell>
        <mxCell id="9ALi2KaTy-VrY5-sKbWw-70" value="getBundles" style="edgeLabel;html=1;align=center;verticalAlign=middle;resizable=0;points=[];" vertex="1" connectable="0" parent="9ALi2KaTy-VrY5-sKbWw-69">
          <mxGeometry x="0.7428" relative="1" as="geometry">
            <mxPoint as="offset" />
          </mxGeometry>
        </mxCell>
        <mxCell id="9ALi2KaTy-VrY5-sKbWw-84" value="11" style="edgeLabel;html=1;align=center;verticalAlign=middle;resizable=0;points=[];" vertex="1" connectable="0" parent="9ALi2KaTy-VrY5-sKbWw-69">
          <mxGeometry x="0.5631" y="2" relative="1" as="geometry">
            <mxPoint as="offset" />
          </mxGeometry>
        </mxCell>
        <mxCell id="9ALi2KaTy-VrY5-sKbWw-75" value="" style="swimlane;startSize=0;" vertex="1" parent="1">
          <mxGeometry x="320" y="-810" width="380" height="130" as="geometry" />
        </mxCell>
        <mxCell id="9ALi2KaTy-VrY5-sKbWw-76" value="Bundles" style="text;html=1;align=center;verticalAlign=middle;resizable=0;points=[];autosize=1;strokeColor=none;fillColor=none;" vertex="1" parent="9ALi2KaTy-VrY5-sKbWw-75">
          <mxGeometry x="155" y="18" width="70" height="30" as="geometry" />
        </mxCell>
        <mxCell id="9ALi2KaTy-VrY5-sKbWw-78" value="Debug-&amp;gt;boot()" style="rounded=0;whiteSpace=wrap;html=1;" vertex="1" parent="9ALi2KaTy-VrY5-sKbWw-75">
          <mxGeometry x="250" y="60" width="120" height="60" as="geometry" />
        </mxCell>
        <mxCell id="9ALi2KaTy-VrY5-sKbWw-71" value="Boot" style="whiteSpace=wrap;html=1;strokeWidth=2;" vertex="1" parent="9ALi2KaTy-VrY5-sKbWw-75">
          <mxGeometry x="130" y="60" width="120" height="60" as="geometry" />
        </mxCell>
        <mxCell id="9ALi2KaTy-VrY5-sKbWw-73" value="Boot" style="rounded=0;whiteSpace=wrap;html=1;" vertex="1" parent="9ALi2KaTy-VrY5-sKbWw-75">
          <mxGeometry x="10" y="60" width="120" height="60" as="geometry" />
        </mxCell>
        <mxCell id="9ALi2KaTy-VrY5-sKbWw-77" style="edgeStyle=orthogonalEdgeStyle;rounded=0;orthogonalLoop=1;jettySize=auto;html=1;exitX=0.5;exitY=1;exitDx=0;exitDy=0;" edge="1" parent="1" source="9ALi2KaTy-VrY5-sKbWw-57" target="9ALi2KaTy-VrY5-sKbWw-75">
          <mxGeometry relative="1" as="geometry">
            <mxPoint x="215" y="-770" as="targetPoint" />
          </mxGeometry>
        </mxCell>
        <mxCell id="9ALi2KaTy-VrY5-sKbWw-85" value="12" style="edgeLabel;html=1;align=center;verticalAlign=middle;resizable=0;points=[];" vertex="1" connectable="0" parent="9ALi2KaTy-VrY5-sKbWw-77">
          <mxGeometry x="-0.4228" y="-2" relative="1" as="geometry">
            <mxPoint as="offset" />
          </mxGeometry>
        </mxCell>
        <mxCell id="9ALi2KaTy-VrY5-sKbWw-89" value="Bundles-&amp;gt;boot()" style="edgeLabel;html=1;align=center;verticalAlign=middle;resizable=0;points=[];" vertex="1" connectable="0" parent="9ALi2KaTy-VrY5-sKbWw-77">
          <mxGeometry x="0.0592" y="-1" relative="1" as="geometry">
            <mxPoint as="offset" />
          </mxGeometry>
        </mxCell>
        <mxCell id="9ALi2KaTy-VrY5-sKbWw-98" style="edgeStyle=orthogonalEdgeStyle;rounded=0;orthogonalLoop=1;jettySize=auto;html=1;exitX=0.5;exitY=1;exitDx=0;exitDy=0;" edge="1" parent="1" source="9ALi2KaTy-VrY5-sKbWw-87" target="9ALi2KaTy-VrY5-sKbWw-97">
          <mxGeometry relative="1" as="geometry" />
        </mxCell>
        <mxCell id="9ALi2KaTy-VrY5-sKbWw-87" value="Controller" style="whiteSpace=wrap;html=1;strokeWidth=2;" vertex="1" parent="1">
          <mxGeometry x="150" y="-400" width="120" height="60" as="geometry" />
        </mxCell>
        <mxCell id="9ALi2KaTy-VrY5-sKbWw-90" value="ClosureResolver-&amp;gt;resolve()" style="rounded=0;whiteSpace=wrap;html=1;" vertex="1" parent="1">
          <mxGeometry x="600" y="-1620" width="200" height="60" as="geometry" />
        </mxCell>
        <mxCell id="9ALi2KaTy-VrY5-sKbWw-93" style="edgeStyle=orthogonalEdgeStyle;rounded=0;orthogonalLoop=1;jettySize=auto;html=1;exitX=1;exitY=0.5;exitDx=0;exitDy=0;entryX=1.003;entryY=0.66;entryDx=0;entryDy=0;entryPerimeter=0;" edge="1" parent="1" source="9ALi2KaTy-VrY5-sKbWw-78" target="9ALi2KaTy-VrY5-sKbWw-87">
          <mxGeometry relative="1" as="geometry">
            <mxPoint x="770" y="-810" as="sourcePoint" />
            <mxPoint x="290" y="-290" as="targetPoint" />
            <Array as="points">
              <mxPoint x="810" y="-720" />
              <mxPoint x="810" y="-360" />
            </Array>
          </mxGeometry>
        </mxCell>
        <mxCell id="9ALi2KaTy-VrY5-sKbWw-94" value="Debug有返回值" style="edgeLabel;html=1;align=center;verticalAlign=middle;resizable=0;points=[];" vertex="1" connectable="0" parent="9ALi2KaTy-VrY5-sKbWw-93">
          <mxGeometry x="-0.4389" y="-3" relative="1" as="geometry">
            <mxPoint as="offset" />
          </mxGeometry>
        </mxCell>
        <mxCell id="9ALi2KaTy-VrY5-sKbWw-99" value="13::after" style="edgeLabel;html=1;align=center;verticalAlign=middle;resizable=0;points=[];" vertex="1" connectable="0" parent="9ALi2KaTy-VrY5-sKbWw-93">
          <mxGeometry x="-0.7444" relative="1" as="geometry">
            <mxPoint y="70" as="offset" />
          </mxGeometry>
        </mxCell>
        <mxCell id="9ALi2KaTy-VrY5-sKbWw-97" value="ReturnResponse" style="strokeWidth=2;html=1;shape=mxgraph.flowchart.delay;whiteSpace=wrap;" vertex="1" parent="1">
          <mxGeometry x="160" y="-200" width="100" height="60" as="geometry" />
        </mxCell>
      </root>
    </mxGraphModel>
  </diagram>
</mxfile>
